<svg width="256" height="256" viewBox="0 0 256 256" fill="none" xmlns="http://www.w3.org/2000/svg">
<rect width="256" height="256" rx="128" fill="#5865F2"/>
<mask id="mask0_5_2" style="mask-type:alpha" maskUnits="userSpaceOnUse" x="0" y="0" width="256" height="256">
<rect width="256" height="256" fill="#D9D9D9"/>
</mask>
<g mask="url(#mask0_5_2)">
<path d="M175.733 186.4C174.133 188 172.267 188.756 170.133 188.667C168 188.578 166.133 187.733 164.533 186.133C162.933 184.533 162.133 182.622 162.133 180.4C162.133 178.178 162.933 176.267 164.533 174.667L211.733 127.467L164.8 80.5333C163.2 78.9333 162.444 77.0222 162.533 74.8C162.622 72.5778 163.467 70.6667 165.067 69.0667C166.667 67.4667 168.578 66.6667 170.8 66.6667C173.022 66.6667 174.933 67.4667 176.533 69.0667L229.067 121.867C230.667 123.467 231.467 125.333 231.467 127.467C231.467 129.6 230.667 131.467 229.067 133.067L175.733 186.4ZM79.7333 185.6L26.9333 133.067C25.3333 131.467 24.5333 129.6 24.5333 127.467C24.5333 125.333 25.3333 123.467 26.9333 121.867L80.2667 68.5333C81.8667 66.9333 83.7778 66.1333 86 66.1333C88.2222 66.1333 90.1333 66.9333 91.7333 68.5333C93.3333 70.1333 94.1333 72.0444 94.1333 74.2667C94.1333 76.4889 93.3333 78.4 91.7333 80L44.2667 127.467L91.2 174.4C92.8 176 93.6 177.867 93.6 180C93.6 182.133 92.8 184 91.2 185.6C89.6 187.2 87.6889 188 85.4667 188C83.2444 188 81.3333 187.2 79.7333 185.6Z" fill="white"/>
</g>
<mask id="mask1_5_2" style="mask-type:alpha" maskUnits="userSpaceOnUse" x="80" y="80" width="96" height="96">
<rect x="80" y="80" width="96" height="96" fill="#D9D9D9"/>
</mask>
<g mask="url(#mask1_5_2)">
<path d="M115.4 137.7C113.867 137.7 112.583 137.183 111.55 136.15C110.517 135.117 110 133.833 110 132.3C110 130.767 110.517 129.483 111.55 128.45C112.583 127.417 113.867 126.9 115.4 126.9C116.933 126.9 118.217 127.417 119.25 128.45C120.283 129.483 120.8 130.767 120.8 132.3C120.8 133.833 120.283 135.117 119.25 136.15C118.217 137.183 116.933 137.7 115.4 137.7ZM140.7 137.7C139.167 137.7 137.883 137.183 136.85 136.15C135.817 135.117 135.3 133.833 135.3 132.3C135.3 130.767 135.817 129.483 136.85 128.45C137.883 127.417 139.167 126.9 140.7 126.9C142.233 126.9 143.517 127.417 144.55 128.45C145.583 129.483 146.1 130.767 146.1 132.3C146.1 133.833 145.583 135.117 144.55 136.15C143.517 137.183 142.233 137.7 140.7 137.7ZM128 162C137.467 162 145.5 158.7 152.1 152.1C158.7 145.5 162 137.467 162 128C162 126.267 161.867 124.567 161.6 122.9C161.333 121.233 161 119.7 160.6 118.3C159.267 118.633 157.817 118.867 156.25 119C154.683 119.133 153.067 119.2 151.4 119.2C144.933 119.2 138.817 117.867 133.05 115.2C127.283 112.533 122.367 108.733 118.3 103.8C116.033 109.2 112.783 113.917 108.55 117.95C104.317 121.983 99.4667 125.1 94 127.3V128C94 137.467 97.3 145.5 103.9 152.1C110.5 158.7 118.533 162 128 162ZM128 168C122.467 168 117.267 166.95 112.4 164.85C107.533 162.75 103.3 159.9 99.7 156.3C96.1 152.7 93.25 148.467 91.15 143.6C89.05 138.733 88 133.533 88 128C88 122.467 89.05 117.267 91.15 112.4C93.25 107.533 96.1 103.3 99.7 99.7C103.3 96.1 107.533 93.25 112.4 91.15C117.267 89.05 122.467 88 128 88C133.533 88 138.733 89.05 143.6 91.15C148.467 93.25 152.7 96.1 156.3 99.7C159.9 103.3 162.75 107.533 164.85 112.4C166.95 117.267 168 122.467 168 128C168 133.533 166.95 138.733 164.85 143.6C162.75 148.467 159.9 152.7 156.3 156.3C152.7 159.9 148.467 162.75 143.6 164.85C138.733 166.95 133.533 168 128 168Z" fill="white"/>
</g>
</svg>
